<?xml version="1.0" encoding="UTF-8" standalone="no"?>
<!DOCTYPE svg PUBLIC "-//W3C//DTD SVG 1.1//EN"
 "http://www.w3.org/Graphics/SVG/1.1/DTD/svg11.dtd">
<!-- Generated by graphviz version 2.40.1 (20161225.0304)
 -->
<!-- Title: dependencies Pages: 1 -->
<svg width="807pt" height="284pt"
 viewBox="0.00 0.00 807.00 284.00" xmlns="http://www.w3.org/2000/svg" xmlns:xlink="http://www.w3.org/1999/xlink">
<g id="graph0" class="graph" transform="scale(1 1) rotate(0) translate(4 280)">
<title>dependencies</title>
<polygon fill="#ffffff" stroke="transparent" points="-4,4 -4,-280 803,-280 803,4 -4,4"/>
<text text-anchor="start" x="378.5091" y="-42.4" font-family="sans-serif" font-weight="bold" font-size="14.00" fill="#000000">Legend</text>
<polygon fill="#ffffb3" stroke="transparent" points="165.5,-10 165.5,-30 185.5,-30 185.5,-10 165.5,-10"/>
<text text-anchor="start" x="189.129" y="-15.4" font-family="sans-serif" font-size="14.00" fill="#000000"> &#160;Declarations</text>
<polygon fill="#8dd3c7" stroke="transparent" points="278.5,-10 278.5,-30 298.5,-30 298.5,-10 278.5,-10"/>
<text text-anchor="start" x="302.2251" y="-15.4" font-family="sans-serif" font-size="14.00" fill="#000000"> &#160;Module</text>
<polygon fill="#80b1d3" stroke="transparent" points="364.5,-10 364.5,-30 384.5,-30 384.5,-10 364.5,-10"/>
<text text-anchor="start" x="388.2812" y="-15.4" font-family="sans-serif" font-size="14.00" fill="#000000"> &#160;Bootstrap</text>
<polygon fill="#fdb462" stroke="transparent" points="461.5,-10 461.5,-30 481.5,-30 481.5,-10 461.5,-10"/>
<text text-anchor="start" x="485.1732" y="-15.4" font-family="sans-serif" font-size="14.00" fill="#000000"> &#160;Providers</text>
<polygon fill="#fb8072" stroke="transparent" points="557.5,-10 557.5,-30 577.5,-30 577.5,-10 557.5,-10"/>
<text text-anchor="start" x="581.2258" y="-15.4" font-family="sans-serif" font-size="14.00" fill="#000000"> &#160;Exports</text>
<g id="clust1" class="cluster">
<title>cluster_NeoCompleterModule</title>
<polygon fill="none" stroke="#000000" stroke-dasharray="1,5" points="8,-70 8,-268 791,-268 791,-70 8,-70"/>
</g>
<g id="clust2" class="cluster">
<title>cluster_NeoCompleterModule_declarations</title>
<polygon fill="none" stroke="#000000" points="16,-78 16,-130 758,-130 758,-78 16,-78"/>
</g>
<g id="clust11" class="cluster">
<title>cluster_NeoCompleterModule_exports</title>
<polygon fill="none" stroke="#000000" points="16,-208 16,-260 783,-260 783,-208 16,-208"/>
</g>
<!-- CompleterListItemCmp -->
<g id="node1" class="node">
<title>CompleterListItemCmp</title>
<polygon fill="#ffffb3" stroke="#000000" points="749.7604,-122 600.2396,-122 600.2396,-86 749.7604,-86 749.7604,-122"/>
<text text-anchor="middle" x="675" y="-99.8" font-family="Times,serif" font-size="14.00" fill="#000000">CompleterListItemCmp</text>
</g>
<!-- NeoCompleterModule -->
<g id="node8" class="node">
<title>NeoCompleterModule</title>
<polygon fill="#8dd3c7" stroke="#000000" points="392.9692,-187 389.9692,-191 368.9692,-191 365.9692,-187 251.0308,-187 251.0308,-151 392.9692,-151 392.9692,-187"/>
<text text-anchor="middle" x="322" y="-164.8" font-family="Times,serif" font-size="14.00" fill="#000000">NeoCompleterModule</text>
</g>
<!-- CompleterListItemCmp&#45;&gt;NeoCompleterModule -->
<g id="edge1" class="edge">
<title>CompleterListItemCmp&#45;&gt;NeoCompleterModule</title>
<path fill="none" stroke="#000000" d="M625.375,-122.2667C625.375,-140.5552 625.375,-166 625.375,-166 625.375,-166 403.128,-166 403.128,-166"/>
<polygon fill="#000000" stroke="#000000" points="403.128,-162.5001 393.128,-166 403.1279,-169.5001 403.128,-162.5001"/>
</g>
<!-- CtrCompleter -->
<g id="node2" class="node">
<title>CtrCompleter</title>
<polygon fill="#ffffb3" stroke="#000000" points="582.486,-122 489.514,-122 489.514,-86 582.486,-86 582.486,-122"/>
<text text-anchor="middle" x="536" y="-99.8" font-family="Times,serif" font-size="14.00" fill="#000000">CtrCompleter</text>
</g>
<!-- CtrCompleter&#45;&gt;NeoCompleterModule -->
<g id="edge2" class="edge">
<title>CtrCompleter&#45;&gt;NeoCompleterModule</title>
<path fill="none" stroke="#000000" d="M493.4385,-122.0091C493.4385,-138.0494 493.4385,-159 493.4385,-159 493.4385,-159 403.216,-159 403.216,-159"/>
<polygon fill="#000000" stroke="#000000" points="403.216,-155.5001 393.216,-159 403.2159,-162.5001 403.216,-155.5001"/>
</g>
<!-- CtrDropdown -->
<g id="node3" class="node">
<title>CtrDropdown</title>
<polygon fill="#ffffb3" stroke="#000000" points="471.7619,-122 378.2381,-122 378.2381,-86 471.7619,-86 471.7619,-122"/>
<text text-anchor="middle" x="425" y="-99.8" font-family="Times,serif" font-size="14.00" fill="#000000">CtrDropdown</text>
</g>
<!-- CtrDropdown&#45;&gt;NeoCompleterModule -->
<g id="edge3" class="edge">
<title>CtrDropdown&#45;&gt;NeoCompleterModule</title>
<path fill="none" stroke="#000000" d="M385.5519,-122.1061C385.5519,-122.1061 385.5519,-140.991 385.5519,-140.991"/>
<polygon fill="#000000" stroke="#000000" points="382.052,-140.9909 385.5519,-150.991 389.052,-140.991 382.052,-140.9909"/>
</g>
<!-- CtrInput -->
<g id="node4" class="node">
<title>CtrInput</title>
<polygon fill="#ffffb3" stroke="#000000" points="359.9405,-122 296.0595,-122 296.0595,-86 359.9405,-86 359.9405,-122"/>
<text text-anchor="middle" x="328" y="-99.8" font-family="Times,serif" font-size="14.00" fill="#000000">CtrInput</text>
</g>
<!-- CtrInput&#45;&gt;NeoCompleterModule -->
<g id="edge4" class="edge">
<title>CtrInput&#45;&gt;NeoCompleterModule</title>
<path fill="none" stroke="#000000" d="M328,-122.1061C328,-122.1061 328,-140.991 328,-140.991"/>
<polygon fill="#000000" stroke="#000000" points="324.5001,-140.9909 328,-150.991 331.5001,-140.991 324.5001,-140.9909"/>
</g>
<!-- CtrList -->
<g id="node5" class="node">
<title>CtrList</title>
<polygon fill="#ffffb3" stroke="#000000" points="277.6672,-122 222.3328,-122 222.3328,-86 277.6672,-86 277.6672,-122"/>
<text text-anchor="middle" x="250" y="-99.8" font-family="Times,serif" font-size="14.00" fill="#000000">CtrList</text>
</g>
<!-- CtrList&#45;&gt;NeoCompleterModule -->
<g id="edge5" class="edge">
<title>CtrList&#45;&gt;NeoCompleterModule</title>
<path fill="none" stroke="#000000" d="M264.4243,-122.1061C264.4243,-122.1061 264.4243,-140.991 264.4243,-140.991"/>
<polygon fill="#000000" stroke="#000000" points="260.9243,-140.9909 264.4243,-150.991 267.9243,-140.991 260.9243,-140.9909"/>
</g>
<!-- CtrRow -->
<g id="node6" class="node">
<title>CtrRow</title>
<polygon fill="#ffffb3" stroke="#000000" points="204.3319,-122 143.6681,-122 143.6681,-86 204.3319,-86 204.3319,-122"/>
<text text-anchor="middle" x="174" y="-99.8" font-family="Times,serif" font-size="14.00" fill="#000000">CtrRow</text>
</g>
<!-- CtrRow&#45;&gt;NeoCompleterModule -->
<g id="edge6" class="edge">
<title>CtrRow&#45;&gt;NeoCompleterModule</title>
<path fill="none" stroke="#000000" d="M193.348,-122.0091C193.348,-138.0494 193.348,-159 193.348,-159 193.348,-159 240.9008,-159 240.9008,-159"/>
<polygon fill="#000000" stroke="#000000" points="240.9008,-162.5001 250.9008,-159 240.9008,-155.5001 240.9008,-162.5001"/>
</g>
<!-- CompleterCmp -->
<g id="node7" class="node">
<title>CompleterCmp</title>
<polygon fill="#ffffb3" stroke="#000000" points="126.3259,-122 23.6741,-122 23.6741,-86 126.3259,-86 126.3259,-122"/>
<text text-anchor="middle" x="75" y="-99.8" font-family="Times,serif" font-size="14.00" fill="#000000">CompleterCmp</text>
</g>
<!-- CompleterCmp&#45;&gt;NeoCompleterModule -->
<g id="edge7" class="edge">
<title>CompleterCmp&#45;&gt;NeoCompleterModule</title>
<path fill="none" stroke="#000000" d="M115.7898,-122.2667C115.7898,-140.5552 115.7898,-166 115.7898,-166 115.7898,-166 240.7454,-166 240.7454,-166"/>
<polygon fill="#000000" stroke="#000000" points="240.7454,-169.5001 250.7454,-166 240.7454,-162.5001 240.7454,-169.5001"/>
</g>
<!-- CompleterCmp  -->
<g id="node9" class="node">
<title>CompleterCmp </title>
<polygon fill="#fb8072" stroke="#000000" points="774.8255,-252 669.1745,-252 669.1745,-216 774.8255,-216 774.8255,-252"/>
<text text-anchor="middle" x="722" y="-229.8" font-family="Times,serif" font-size="14.00" fill="#000000">CompleterCmp </text>
</g>
<!-- NeoCompleterModule&#45;&gt;CompleterCmp  -->
<g id="edge8" class="edge">
<title>NeoCompleterModule&#45;&gt;CompleterCmp </title>
<path fill="none" stroke="#000000" stroke-dasharray="5,2" d="M393.0705,-173C504.9337,-173 709.4837,-173 709.4837,-173 709.4837,-173 709.4837,-205.698 709.4837,-205.698"/>
<polygon fill="#000000" stroke="#000000" points="705.9838,-205.698 709.4837,-215.698 712.9838,-205.698 705.9838,-205.698"/>
</g>
<!-- CompleterListItemCmp  -->
<g id="node10" class="node">
<title>CompleterListItemCmp </title>
<polygon fill="#fb8072" stroke="#000000" points="650.7604,-252 497.2396,-252 497.2396,-216 650.7604,-216 650.7604,-252"/>
<text text-anchor="middle" x="574" y="-229.8" font-family="Times,serif" font-size="14.00" fill="#000000">CompleterListItemCmp </text>
</g>
<!-- NeoCompleterModule&#45;&gt;CompleterListItemCmp  -->
<g id="edge9" class="edge">
<title>NeoCompleterModule&#45;&gt;CompleterListItemCmp </title>
<path fill="none" stroke="#000000" stroke-dasharray="5,2" d="M393.0574,-180C456.654,-180 539.9315,-180 539.9315,-180 539.9315,-180 539.9315,-205.7181 539.9315,-205.7181"/>
<polygon fill="#000000" stroke="#000000" points="536.4315,-205.718 539.9315,-215.7181 543.4315,-205.7181 536.4315,-205.718"/>
</g>
<!-- CtrCompleter  -->
<g id="node11" class="node">
<title>CtrCompleter </title>
<polygon fill="#fb8072" stroke="#000000" points="479.4872,-252 382.5128,-252 382.5128,-216 479.4872,-216 479.4872,-252"/>
<text text-anchor="middle" x="431" y="-229.8" font-family="Times,serif" font-size="14.00" fill="#000000">CtrCompleter </text>
</g>
<!-- NeoCompleterModule&#45;&gt;CtrCompleter  -->
<g id="edge10" class="edge">
<title>NeoCompleterModule&#45;&gt;CtrCompleter </title>
<path fill="none" stroke="#000000" stroke-dasharray="5,2" d="M387.8708,-187.1061C387.8708,-187.1061 387.8708,-205.991 387.8708,-205.991"/>
<polygon fill="#000000" stroke="#000000" points="384.3709,-205.9909 387.8708,-215.991 391.3709,-205.991 384.3709,-205.9909"/>
</g>
<!-- CtrDropdown  -->
<g id="node12" class="node">
<title>CtrDropdown </title>
<polygon fill="#fb8072" stroke="#000000" points="364.762,-252 267.238,-252 267.238,-216 364.762,-216 364.762,-252"/>
<text text-anchor="middle" x="316" y="-229.8" font-family="Times,serif" font-size="14.00" fill="#000000">CtrDropdown </text>
</g>
<!-- NeoCompleterModule&#45;&gt;CtrDropdown  -->
<g id="edge11" class="edge">
<title>NeoCompleterModule&#45;&gt;CtrDropdown </title>
<path fill="none" stroke="#000000" stroke-dasharray="5,2" d="M316,-187.1061C316,-187.1061 316,-205.991 316,-205.991"/>
<polygon fill="#000000" stroke="#000000" points="312.5001,-205.9909 316,-215.991 319.5001,-205.991 312.5001,-205.9909"/>
</g>
<!-- CtrInput  -->
<g id="node13" class="node">
<title>CtrInput </title>
<polygon fill="#fb8072" stroke="#000000" points="249.439,-252 182.561,-252 182.561,-216 249.439,-216 249.439,-252"/>
<text text-anchor="middle" x="216" y="-229.8" font-family="Times,serif" font-size="14.00" fill="#000000">CtrInput </text>
</g>
<!-- NeoCompleterModule&#45;&gt;CtrInput  -->
<g id="edge12" class="edge">
<title>NeoCompleterModule&#45;&gt;CtrInput </title>
<path fill="none" stroke="#000000" stroke-dasharray="5,2" d="M259.1923,-187.1061C259.1923,-206.3391 259.1923,-234 259.1923,-234 259.1923,-234 258.2337,-234 258.2337,-234"/>
<polygon fill="#000000" stroke="#000000" points="259.6066,-230.5001 249.6065,-234 259.6065,-237.5001 259.6066,-230.5001"/>
</g>
<!-- CtrList  -->
<g id="node14" class="node">
<title>CtrList </title>
<polygon fill="#fb8072" stroke="#000000" points="164.6664,-252 105.3336,-252 105.3336,-216 164.6664,-216 164.6664,-252"/>
<text text-anchor="middle" x="135" y="-229.8" font-family="Times,serif" font-size="14.00" fill="#000000">CtrList </text>
</g>
<!-- NeoCompleterModule&#45;&gt;CtrList  -->
<g id="edge13" class="edge">
<title>NeoCompleterModule&#45;&gt;CtrList </title>
<path fill="none" stroke="#000000" stroke-dasharray="5,2" d="M250.8414,-180C205.1099,-180 154.2088,-180 154.2088,-180 154.2088,-180 154.2088,-205.7181 154.2088,-205.7181"/>
<polygon fill="#000000" stroke="#000000" points="150.7089,-205.718 154.2088,-215.7181 157.7089,-205.7181 150.7089,-205.718"/>
</g>
<!-- CtrRow  -->
<g id="node15" class="node">
<title>CtrRow </title>
<polygon fill="#fb8072" stroke="#000000" points="87.8312,-252 24.1688,-252 24.1688,-216 87.8312,-216 87.8312,-252"/>
<text text-anchor="middle" x="56" y="-229.8" font-family="Times,serif" font-size="14.00" fill="#000000">CtrRow </text>
</g>
<!-- NeoCompleterModule&#45;&gt;CtrRow  -->
<g id="edge14" class="edge">
<title>NeoCompleterModule&#45;&gt;CtrRow </title>
<path fill="none" stroke="#000000" stroke-dasharray="5,2" d="M250.7169,-173C171.9245,-173 56,-173 56,-173 56,-173 56,-205.698 56,-205.698"/>
<polygon fill="#000000" stroke="#000000" points="52.5001,-205.698 56,-215.698 59.5001,-205.698 52.5001,-205.698"/>
</g>
</g>
</svg>
